<?xml version="1.0" encoding="UTF-8" standalone="no"?>
<!-- Created with Inkscape (http://www.inkscape.org/) -->

<svg
   xmlns:dc="http://purl.org/dc/elements/1.1/"
   xmlns:cc="http://creativecommons.org/ns#"
   xmlns:rdf="http://www.w3.org/1999/02/22-rdf-syntax-ns#"
   xmlns:svg="http://www.w3.org/2000/svg"
   xmlns="http://www.w3.org/2000/svg"
   xmlns:sodipodi="http://sodipodi.sourceforge.net/DTD/sodipodi-0.dtd"
   xmlns:inkscape="http://www.inkscape.org/namespaces/inkscape"
   width="210mm"
   height="297mm"
   viewBox="0 0 210 297"
   version="1.1"
   id="svg8"
   inkscape:version="0.92.5 (2060ec1f9f, 2020-04-08)"
   sodipodi:docname="ohno.svg">
  <defs
     id="defs2" />
  <sodipodi:namedview
     id="base"
     pagecolor="#ffffff"
     bordercolor="#666666"
     borderopacity="1.0"
     inkscape:pageopacity="0.0"
     inkscape:pageshadow="2"
     inkscape:zoom="0.35"
     inkscape:cx="-112.85714"
     inkscape:cy="548.57143"
     inkscape:document-units="mm"
     inkscape:current-layer="g826"
     showgrid="false"
     inkscape:window-width="1848"
     inkscape:window-height="1016"
     inkscape:window-x="72"
     inkscape:window-y="1107"
     inkscape:window-maximized="1" />
  <metadata
     id="metadata5">
    <rdf:RDF>
      <cc:Work
         rdf:about="">
        <dc:format>image/svg+xml</dc:format>
        <dc:type
           rdf:resource="http://purl.org/dc/dcmitype/StillImage" />
        <dc:title></dc:title>
      </cc:Work>
    </rdf:RDF>
  </metadata>
  <g
     inkscape:label="Layer 1"
     inkscape:groupmode="layer"
     id="layer1">
    <g
       id="g826"
       transform="matrix(0.77143501,0,0,0.77143501,43.295454,82.420465)">
      <path
         style="fill:#f5e0a0;stroke-width:0.26458335"
         d="m 61.922258,195.05243 c -0.711843,-0.12323 -1.604812,-0.35012 -1.984375,-0.50421 -0.379563,-0.15408 -2.118865,-0.57821 -3.865115,-0.9425 -7.878686,-1.64359 -8.581123,-1.84236 -17.137346,-4.84952 -2.607056,-0.91627 -10.13817,-4.50969 -13.951196,-6.65672 -1.382448,-0.77843 -3.011977,-1.67909 -3.621175,-2.00147 -0.609198,-0.32238 -2.216542,-1.41412 -3.571875,-2.42609 -1.355334,-1.01197 -3.178617,-2.32279 -4.051742,-2.91293 -0.873125,-0.59014 -2.837657,-2.17161 -4.3656253,-3.51438 -1.5279688,-1.34277 -3.3734376,-2.89223 -4.1010418,-3.44324 -1.3917797,-1.054 -6.13751846,-5.80054 -6.7899122,-6.79107 -0.2100051,-0.31885 -1.706081,-2.10479 -3.3246113,-3.96875 -2.7561011,-3.17403 -3.8085872,-4.5903 -6.8442074,-9.20985 -0.669377,-1.01865 -1.693693,-2.54797 -2.276258,-3.3985 -1.155995,-1.68771 -5.280638,-9.62648 -6.757186,-13.00567 -1.67763,-3.83938 -4.611619,-12.33229 -5.24196,-15.17371 -0.214695,-0.96779 -0.634974,-2.89072 -0.933953,-4.27316 -0.29898,-1.38245 -0.863002,-3.7637 -1.253382,-5.29167 l -0.709781,-2.77813 0.0073,-14.552079 c 0.0066,-13.190291 0.05191,-14.713021 0.483916,-16.271875 0.262132,-0.945885 0.63303,-2.493698 0.824217,-3.439583 0.959963,-4.749356 2.027196,-9.052386 2.65768,-10.715625 0.386138,-1.018646 0.806427,-2.268802 0.933976,-2.778125 1.236975,-4.939422 7.053955,-17.607809 9.782711,-21.305068 0.539487,-0.730964 1.252085,-1.862058 1.583551,-2.513542 0.331466,-0.651483 1.151341,-1.89422 1.821944,-2.761638 0.670603,-0.867418 1.5169341,-2.080197 1.8807361,-2.695065 0.3638021,-0.614865 1.9123767,-2.584066 3.4412741,-4.376002 1.5289001,-1.791933 3.2532929,-3.853373 3.8319843,-4.580977 1.55723963,-1.957954 5.8244767,-6.153475 7.9402835,-7.806836 1.0186459,-0.7960038 3.0427084,-2.4649769 4.497917,-3.7088334 1.455208,-1.2438539 3.479271,-2.8137618 4.497916,-3.4886847 1.018646,-0.674923 2.447396,-1.712595 3.175001,-2.30594169 0.727604,-0.593344 1.741156,-1.28704076 2.252339,-1.5415477 0.511183,-0.25450691 1.30456,-0.73140571 1.763057,-1.05977531 0.926819,-0.6637756 10.770568,-5.67422 13.050229,-6.6425342 2.172711,-0.922886 6.130763,-2.355564 9.260417,-3.351948 1.527968,-0.486458 3.135312,-1.007596 3.571875,-1.158085 0.75067,-0.258767 6.226357,-1.493252 9.392708,-2.117572 0.800365,-0.157811 2.110052,-0.487608 2.910417,-0.732884 1.289664,-0.395223 3.125705,-0.446275 16.139583,-0.448765 10.384198,-0.002 15.033038,0.08803 15.875001,0.307393 1.13806,0.296507 2.841617,0.686246 9.921871,2.269926 1.74625,0.390593 3.47266,0.839598 3.83646,0.997789 0.36381,0.158192 1.55443,0.564923 2.64584,0.903848 5.48786,1.7042 11.23521,4.0720468 15.875,6.5403326 0.94588,0.5031946 2.67229,1.4218139 3.83646,2.0413763 1.16416,0.6195623 2.41432,1.3345004 2.77812,1.5887514 0.3638,0.2542511 0.95911,0.5508022 1.32292,0.6590028 0.3638,0.1082008 0.95911,0.46267738 1.32291,0.78772594 0.96752,0.86445461 3.75058,2.78913696 4.03305,2.78913696 0.25973,0 0.83714,0.4636638 5.34223,4.2898536 1.59114,1.351362 3.67473,3.1080419 4.6302,3.9037314 5.21562,4.343405 13.66608,14.199304 17.6787,20.618929 0.4,0.639955 1.3571,2.128237 2.12687,3.307291 1.48545,2.275245 6.07758,11.387469 7.41387,14.711445 1.36064,3.384518 2.40004,6.227776 2.66986,7.303336 0.14226,0.567071 0.55208,1.864476 0.91071,2.883122 0.72995,2.073328 1.61317,5.747549 2.19425,9.128125 0.21261,1.236927 0.64863,2.963334 0.96894,3.836459 0.57494,1.567264 0.58237,1.781429 0.58237,16.801041 0,15.089431 -0.005,15.228741 -0.60015,17.076221 -0.33008,1.02448 -0.70951,2.51276 -0.84319,3.30729 -0.92667,5.50787 -3.29411,13.45436 -6.02698,20.23003 -1.58457,3.92866 -5.69527,11.97782 -7.36418,14.41979 -0.7459,1.09141 -1.5693,2.4011 -1.82978,2.91042 -0.26049,0.50932 -1.03128,1.64042 -1.71288,2.51354 -0.6816,0.87313 -1.52039,2.06375 -1.86397,2.64583 -0.34358,0.58209 -1.64488,2.22937 -2.89178,3.66064 -1.2469,1.43126 -2.68381,3.14628 -3.19314,3.81116 -2.19115,2.86034 -10.7452,10.85809 -15.16662,14.18029 -0.75196,0.56501 -1.64772,1.3078 -1.99057,1.65065 -0.34285,0.34285 -0.87922,0.70108 -1.19194,0.79608 -0.59039,0.17933 -2.22175,1.29729 -3.7396,2.56273 -0.48316,0.40281 -1.27702,0.86579 -1.76414,1.02884 -0.48712,0.16305 -1.12379,0.50862 -1.41483,0.76793 -1.23841,1.10339 -12.86957,6.80902 -16.0073,7.85232 -0.65484,0.21774 -2.08359,0.72922 -3.175,1.13662 -3.32042,1.23946 -7.05878,2.29753 -11.64166,3.29496 -2.401098,0.52258 -5.199067,1.20903 -6.217713,1.52544 -1.797111,0.55822 -2.284008,0.57684 -16.404167,0.62726 -8.003646,0.0286 -15.1345,-0.0489 -15.846343,-0.1721 z M 118.79479,112.3911 c 7.50925,-0.5636 16.15116,-5.13878 21.00098,-11.11828 2.83574,-3.496281 5.20579,-7.772275 5.79701,-10.458831 1.20288,-5.466024 1.23202,-5.715013 1.22346,-10.451041 -0.008,-4.558147 -0.0458,-4.896073 -0.87571,-7.875429 -1.68482,-6.04869 -4.29064,-10.528348 -8.57547,-14.742081 -9.34993,-9.1948 -23.76078,-11.54694 -35.91625,-5.862256 -4.435917,2.074524 -9.106681,5.934628 -11.892203,9.828191 -1.196997,1.673143 -3.28539,5.375452 -3.581025,6.34845 -0.110537,0.363802 -0.476991,1.325157 -0.81434,2.136349 -1.514498,3.641754 -2.01531,11.343716 -1.087649,16.726892 0.663337,3.849314 2.725079,8.732176 5.10616,12.093009 2.549993,3.599247 7.121048,7.521577 11.269297,9.669937 2.81433,1.45754 7.29993,2.95863 9.98654,3.34196 1.09639,0.15643 2.58874,0.36974 3.31635,0.47401 0.7276,0.10427 1.73963,0.15352 2.24895,0.10945 0.50933,-0.0441 1.76658,-0.14323 2.7939,-0.22033 z m -5.17515,-16.724369 c -7.64736,-1.182487 -12.97128,-6.834825 -13.41775,-14.24545 -0.18226,-3.025198 0.19578,-4.847455 1.58047,-7.61846 1.71031,-3.422613 4.99861,-6.358546 8.52999,-7.615941 2.34361,-0.834472 6.29789,-0.96706 8.78946,-0.294714 5.12507,1.382992 9.47165,5.868458 10.81783,11.16349 0.6755,2.656993 0.38524,6.505374 -0.68447,9.074936 -1.50582,3.617153 -3.96872,6.255954 -7.49755,8.033046 -2.41235,1.214835 -5.85719,1.852671 -8.11798,1.503093 z M 42.995435,112.10239 c 11.575552,-1.70965 21.081693,-9.14562 25.368515,-19.84395 1.455483,-3.632351 1.956821,-6.547207 1.977702,-11.498617 0.02742,-6.503258 -0.715971,-9.641848 -3.603408,-15.213542 -2.442814,-4.713735 -5.456793,-8.054832 -10.400893,-11.529735 -2.884429,-2.02729 -7.8745,-4.049416 -11.773958,-4.771162 -2.25633,-0.417624 -8.865344,-0.423212 -11.377084,-0.0096 -4.704099,0.774589 -9.941285,3.136958 -14.2875,6.444745 -3.143266,2.392254 -6.809695,6.946884 -8.474316,10.527231 -0.304456,0.654843 -0.8289635,1.785937 -1.1655664,2.513541 -0.3366056,0.727605 -0.9544738,2.751667 -1.373042,4.497917 -0.698963,2.916047 -0.7593648,3.563432 -0.7405635,7.9375 0.016245,3.776872 0.1120564,5.002101 0.4630209,5.920245 0.2434008,0.63676 0.44255,1.540854 0.44255,2.009101 0,3.271297 4.230219,10.522619 8.494514,14.561056 7.399221,7.00731 16.517774,9.92224 26.450029,8.45529 z M 35.832142,95.416453 c -4.411088,-0.966639 -8.691081,-4.218865 -10.461265,-7.94917 -2.315763,-4.880007 -2.289823,-9.439302 0.07936,-13.947857 3.104388,-5.907662 9.993029,-9.166416 16.520448,-7.815197 5.271225,1.091182 10.359539,6.084581 11.567189,11.351427 0.509292,2.221137 0.349875,5.591122 -0.372689,7.878442 -1.612881,5.105676 -6.224617,9.444583 -10.98304,10.333289 -2.61739,0.488836 -4.588377,0.535107 -6.35,0.149066 z"
         id="path840"
         inkscape:connector-curvature="0" />
      <path
         style="fill:#f9c948;stroke-width:0.26458335"
         d="m 69.434226,194.82905 c -1.815515,-0.11861 -3.069304,-0.33812 -3.618481,-0.63351 -0.487625,-0.26229 -2.264521,-0.62241 -4.233334,-0.85797 -6.826808,-0.81681 -10.20286,-1.49497 -14.637768,-2.94036 -0.654844,-0.21343 -2.143125,-0.66588 -3.307292,-1.00545 -1.164167,-0.33958 -3.41653,-1.16771 -5.005253,-1.8403 -1.588722,-0.67259 -2.982137,-1.22289 -3.096477,-1.22289 -0.614624,0 -11.219847,-5.42881 -12.138895,-6.2139 -0.218282,-0.18647 -0.898909,-0.59141 -1.512507,-0.89988 -0.613598,-0.30848 -1.240078,-0.79339 -1.392177,-1.07759 -0.152098,-0.2842 -0.682262,-0.62875 -1.178142,-0.76567 -0.957101,-0.26427 -6.235925,-3.89606 -6.235925,-4.29027 0,-0.12807 -0.334618,-0.40589 -0.743595,-0.61738 -1.410486,-0.72939 -4.9537199,-3.78997 -7.9876547,-6.8996 -2.8487106,-2.91978 -3.78299142,-3.85863 -4.48146233,-4.50342 -0.15763875,-0.14552 -1.01213977,-1.03849 -1.89889077,-1.98437 -1.4206538,-1.5154 -2.2981312,-2.59822 -4.3334121,-5.34753 -0.2920656,-0.39453 -1.0716313,-1.40656 -1.7323726,-2.24896 -0.6607387,-0.8424 -1.6637053,-2.24601 -2.2288115,-3.11914 -0.565107,-0.87312 -1.483017,-2.28567 -2.0398,-3.139 -0.556784,-0.85333 -1.012334,-1.70195 -1.012334,-1.88583 0,-0.18388 -0.174686,-0.47931 -0.38819,-0.6565 -1.476739,-1.22558 -6.663839,-12.43412 -8.88054,-19.1895 -0.620763,-1.89177 -1.411949,-4.21349 -1.75819,-5.15937 -0.900088,-2.45893 -1.923987,-7.83654 -2.588626,-13.59572 -0.26557,-2.30119 -0.546198,-3.63409 -0.86343,-4.10104 -0.430892,-0.634247 -0.469983,-1.572049 -0.469983,-11.275119 0,-9.396431 0.04901,-10.657515 0.437049,-11.244792 0.542552,-0.821131 0.644242,-1.342448 1.161237,-5.953125 0.519192,-4.630258 1.222972,-8.08233 2.389059,-11.718435 0.499205,-1.556629 0.98323,-3.247718 1.07561,-3.75798 0.09238,-0.510263 0.37367,-1.34447 0.625088,-1.853793 0.251418,-0.509323 0.657447,-1.580885 0.902288,-2.38125 0.24484,-0.800365 0.671783,-1.931458 0.948763,-2.513542 0.27698,-0.582083 1.107923,-2.420204 1.84654,-4.084714 1.803339,-4.063913 4.572688,-9.200663 6.802078,-12.616892 0.463034,-0.709533 1.267997,-1.944904 1.788807,-2.745269 0.5208091,-0.800364 1.4767673,-2.169583 2.1243509,-3.042708 0.6475809,-0.873125 1.3849059,-1.885156 1.6384984,-2.248958 0.7239979,-1.038649 6.21159392,-7.354856 8.0681011,-9.286359 C 3.14648,14.175239 4.9648343,12.488803 8.4395411,9.4546143 9.4394306,8.5814893 10.612127,7.5396925 11.045534,7.1395102 11.478937,6.7393279 11.976023,6.411906 12.150169,6.411906 c 0.174143,0 0.543438,-0.2555319 0.820653,-0.5678487 0.277217,-0.3123169 1.099341,-0.9716638 1.826945,-1.4652149 1.936446,-1.3135399 2.940812,-2.060575 3.435578,-2.5553406 0.241273,-0.2412735 0.668022,-0.4386791 0.948333,-0.4386791 0.28031,0 0.951454,-0.41671878 1.491432,-0.9260417 0.539978,-0.50932292 1.112435,-0.92604167 1.272127,-0.92604167 0.159692,0 0.700434,-0.30548447 1.201648,-0.67885443 0.501213,-0.3733699 1.506611,-0.9769993 2.234216,-1.3413986 0.727604,-0.364399 2.156354,-1.1226255 3.175,-1.6849476 1.018645,-0.5623222 2.149739,-1.1584324 2.513541,-1.3246894 0.363802,-0.1662568 1.375834,-0.6390508 2.248959,-1.0506533 0.873125,-0.4116022 2.06375,-0.8948499 2.645833,-1.0738839 0.582083,-0.1790338 1.534583,-0.5651619 2.116667,-0.8580626 1.224028,-0.6159232 5.567508,-2.1457475 8.069792,-2.8422745 0.945885,-0.263294 2.16626,-0.668712 2.711947,-0.900929 1.423104,-0.605605 6.885427,-1.65936 11.046386,-2.130995 4.460103,-0.505542 5.001255,-0.612863 5.820834,-1.154388 0.587277,-0.388034 1.84836,-0.437049 11.244791,-0.437049 9.396431,0 10.657515,0.04901 11.244792,0.437049 0.812509,0.536855 1.341496,0.642031 5.743647,1.14199 3.877429,0.440365 8.89076,1.416302 11.32198,2.204028 0.87312,0.282897 2.48047,0.7871 3.57187,1.12045 2.03536,0.621663 6.12597,2.11202 7.54063,2.7473245 0.43656,0.1960544 1.24396,0.5000469 1.79421,0.6755387 0.55025,0.175492 1.50275,0.5938236 2.11666,0.9296262 0.61392,0.3358023 1.37499,0.6876603 1.69128,0.7819065 0.66091,0.1969349 7.65924,3.9616126 9.15901,4.92699697 0.55156,0.35502903 1.48555,1.03246026 2.07555,1.50540296 0.59,0.47294271 1.28114,0.85989587 1.53586,0.85989587 0.25472,0 0.68994,0.2507932 0.96715,0.5573209 0.27722,0.3065251 0.94653,0.7831641 1.48737,1.0591986 0.54084,0.2760318 1.10547,0.7300753 1.25474,1.0089885 0.14927,0.2789132 0.67951,0.6418024 1.17831,0.8064209 0.4988,0.1646185 1.06351,0.4880028 1.25491,0.7186322 0.19141,0.2306293 0.76648,0.6897237 1.27794,1.0202095 1.33426,0.8621527 8.21464,7.1862157 9.65777,8.8768817 0.67102,0.786122 1.51184,1.582203 1.86849,1.769071 0.35665,0.186867 0.64846,0.457906 0.64846,0.602305 0,0.144399 1.06513,1.393955 2.36695,2.776791 1.30182,1.382835 2.75062,3.106357 3.21956,3.830045 0.46893,0.723691 0.9492,1.315802 1.06725,1.315802 0.11806,0 0.47093,0.506016 0.78416,1.12448 0.31323,0.618463 0.94073,1.564674 1.39444,2.102691 1.35838,1.610781 1.93132,2.42996 2.12071,3.032133 0.0987,0.31392 0.59055,1.087826 1.09294,1.719791 0.50239,0.631966 0.91459,1.297858 0.916,1.47976 10e-4,0.181901 0.2246,0.552756 0.49596,0.824121 0.27137,0.271367 0.8087,1.13457 1.19406,1.918229 0.38537,0.783662 0.87676,1.722493 1.09197,2.086295 0.21522,0.363802 0.57298,1.078177 0.79501,1.5875 0.22204,0.509323 0.56882,1.223698 0.77062,1.5875 0.75364,1.358633 2.23824,4.666599 2.55299,5.688542 0.17927,0.582083 0.4724,1.296458 0.65139,1.5875 0.30974,0.503637 2.6566,7.284016 3.29683,9.525 1.13434,3.970441 2.10352,8.780322 2.639,13.096875 0.34961,2.818193 0.69609,4.514863 1.10764,5.423958 0.58575,1.293895 0.59898,1.52898 0.6031,10.715625 l 0.004,9.392709 -0.70286,1.984372 c -0.41419,1.16938 -0.82432,3.12537 -0.9986,4.7625 -0.69315,6.51149 -1.24159,8.93289 -3.92522,17.33021 -0.64314,2.01244 -1.03235,3.10419 -1.69782,4.7625 -0.29199,0.72761 -0.78781,1.97776 -1.10183,2.77813 -0.31402,0.80036 -0.83153,1.86712 -1.15003,2.37056 -0.3185,0.50345 -0.6576,1.27281 -0.75355,1.70969 -0.0959,0.43688 -0.45307,1.21559 -0.79359,1.73047 -0.34053,0.51488 -0.75874,1.35287 -0.92937,1.86219 -0.17062,0.50933 -0.52604,1.16565 -0.78982,1.45851 -0.26377,0.29285 -0.737,1.11437 -1.05161,1.8256 -0.31461,0.71123 -1.21339,2.219 -1.9973,3.35059 -0.7839,1.13159 -1.42528,2.14914 -1.42528,2.26121 0,0.3056 -1.31945,2.21214 -2.33154,3.36894 -0.49084,0.56104 -1.03025,1.34043 -1.19868,1.73198 -0.43183,1.00391 -2.85451,3.9597 -5.26717,6.42624 -1.12779,1.15297 -2.05052,2.26514 -2.05052,2.47149 0,0.20635 -0.35366,0.55807 -0.78591,0.78159 -0.43225,0.22353 -0.91973,0.65646 -1.08329,0.96208 -0.45885,0.85736 -6.40027,6.47365 -9.37559,8.86253 -0.72761,0.58419 -1.90369,1.41152 -2.61353,1.83851 -0.70983,0.427 -1.6028,1.08247 -1.98437,1.4566 -0.94329,0.9249 -3.12445,2.41699 -4.33179,2.96329 -0.54571,0.24692 -0.99219,0.57663 -0.99219,0.73269 0,0.15606 -0.51528,0.51167 -1.14506,0.79026 -0.62978,0.27858 -1.4378,0.73678 -1.7956,1.01822 -1.20645,0.94899 -11.62047,6.10514 -13.19892,6.535 -0.36381,0.0991 -1.13771,0.45179 -1.71979,0.78381 -0.58209,0.33203 -1.80231,0.79057 -2.7116,1.01899 -0.9093,0.22842 -2.10272,0.6446 -2.65204,0.92485 -0.54933,0.28025 -1.5913,0.59516 -2.31549,0.6998 -0.72419,0.10464 -1.99272,0.47106 -2.81896,0.81426 -0.82623,0.34321 -2.49311,0.79691 -3.70416,1.00823 -1.211057,0.21132 -2.380515,0.45028 -2.598797,0.53104 -0.218281,0.0807 -2.420937,0.37601 -4.894791,0.65612 -3.123285,0.35366 -4.878412,0.68016 -5.742927,1.06833 -1.147694,0.51532 -1.80948,0.56687 -8.466667,0.65949 -3.971912,0.0553 -8.471813,0.0188 -9.999782,-0.081 z m -23.8125,-82.19628 c 2.301105,-0.38346 5.479037,-1.51558 8.37451,-2.98338 5.16827,-2.61994 10.481895,-7.83169 13.538716,-13.279151 C 70.525249,91.04133 72.111418,83.732276 71.551914,77.860122 70.151062,63.157797 59.295816,51.042415 45.092559,48.329224 41.743164,47.689401 35.829023,47.68416 32.402327,48.31798 22.668203,50.11844 13.818346,57.014307 9.1175862,66.461599 7.8490916,69.010942 6.4974518,73.604762 6.1674978,76.488077 c -0.5247693,4.585687 0.2144157,11.662736 1.4650218,14.026322 0.2026814,0.383058 1.0228448,2.065689 1.822585,3.739179 3.3138054,6.934282 8.0977554,11.851042 14.9246304,15.338982 3.987477,2.03725 8.100036,3.10244 13.304491,3.44599 3.331432,0.21991 4.559525,0.15713 7.9375,-0.40578 z M 34.906101,94.828692 c -2.671144,-0.809347 -4.736336,-2.033561 -6.637219,-3.934444 -5.857219,-5.857219 -5.637334,-15.570502 0.47775,-21.104336 4.759984,-4.307538 10.626948,-5.256033 16.307393,-2.636372 3.889193,1.793584 7.462253,6.326984 8.246655,10.463125 1.380184,7.277666 -2.767023,14.457156 -9.795621,16.957821 -2.13283,0.758825 -6.506771,0.888129 -8.598958,0.254206 z m 82.814589,18.065698 c 10.35856,-0.6818 19.78847,-6.48447 25.34843,-15.598109 1.41584,-2.320772 3.60758,-7.372673 4.18978,-9.657292 0.66717,-2.618105 0.92572,-8.382653 0.5162,-11.509375 -0.57282,-4.373612 -2.59245,-9.727893 -5.16295,-13.687597 -1.77445,-2.733439 -5.98616,-6.967781 -9.11963,-9.168646 -8.09622,-5.686549 -20.14164,-7.112566 -29.66246,-3.511637 -4.821656,1.823627 -8.296439,4.08986 -11.92158,7.775181 -1.9982,2.031373 -3.083489,3.44265 -5.447168,7.083324 -0.330673,0.509323 -0.773001,1.41387 -0.982951,2.010103 -0.209949,0.596236 -0.616206,1.548736 -0.902795,2.116667 -0.72304,1.432848 -1.884199,6.480998 -2.135108,9.282409 -1.127006,12.583025 6.311315,25.806172 17.878262,31.782302 2.47111,1.27671 6.36268,2.61076 8.56567,2.93635 1.07642,0.15909 2.25478,0.33299 2.61859,0.38645 0.65988,0.097 1.71543,0.0562 6.21771,-0.24013 z m -5.15938,-17.747147 c -7.51745,-1.464395 -12.771184,-8.447077 -12.06808,-16.039563 0.72188,-7.795313 8.01429,-13.939377 15.80747,-13.318263 10.457,0.833424 16.76682,11.858834 12.14521,21.221846 -2.51925,5.103796 -6.91776,7.963281 -12.56466,8.168309 -1.46217,0.05309 -2.95614,0.03854 -3.31994,-0.03233 z"
         id="path838"
         inkscape:connector-curvature="0" />
      <path
         style="fill:#f6a761;stroke-width:0.26458335"
         d="m 41.388392,188.70982 c -0.218281,-0.14106 -0.277812,-0.25648 -0.132291,-0.25648 0.145521,0 0.443177,0.11542 0.661458,0.25648 0.218281,0.14107 0.277813,0.25648 0.132292,0.25648 -0.145521,0 -0.443177,-0.11541 -0.661459,-0.25648 z M 20.371027,177.93946 c -0.143584,-0.37708 -0.113194,-0.40747 0.148114,-0.14811 0.180822,0.17948 0.262115,0.39297 0.180652,0.47443 -0.08146,0.0815 -0.229407,-0.0654 -0.328766,-0.32632 z m 113.356953,-0.34214 c 0.21828,-0.14106 0.51593,-0.25648 0.66146,-0.25648 0.14552,0 0.086,0.11542 -0.1323,0.25648 -0.21828,0.14107 -0.51593,0.25648 -0.66145,0.25648 -0.14553,0 -0.086,-0.11541 0.13229,-0.25648 z M 6.3207948,167.53177 c -0.4018915,-0.44409 -0.4128612,-0.51126 -0.061463,-0.37642 0.2352516,0.0903 0.4927282,0.33352 0.5721747,0.54056 0.1976728,0.51513 0.065606,0.47268 -0.5107117,-0.16414 z m -2.1314993,-2.14378 c -0.5013272,-0.56462 -0.5008377,-0.56599 0.091284,-0.25528 0.3274219,0.17182 0.5953125,0.42727 0.5953125,0.56767 0,0.37588 -0.1266507,0.31825 -0.6865965,-0.31239 z m 47.2532635,-5.54782 c -2.472737,-0.97611 -4.0581,-3.25278 -4.037269,-5.79774 0.02096,-2.55947 1.306801,-4.48473 3.772686,-5.64871 1.187349,-0.56047 1.258705,-0.56202 25.929167,-0.56202 h 24.738547 l 1.4552,0.82056 c 1.86191,1.04989 2.87142,2.51109 3.24612,4.69854 0.27123,1.58342 0.24933,1.72634 -0.4889,3.1905 -0.82448,1.63524 -2.06316,2.79076 -3.5243,3.28766 -1.16589,0.3965 -50.088041,0.40723 -51.091251,0.0112 z M 10.29985,148.82519 C 7.9528189,148.63761 3.5543617,147.61506 1.3926126,146.75446 -8.074547,142.98553 -15.229121,134.5253 -17.121172,124.86203 c -0.940996,-4.80595 -0.634092,-11.46002 0.690546,-14.97187 1.355834,-3.59457 1.776724,-4.55434 2.564086,-5.847 1.849254,-3.03604 2.738907,-4.170885 5.0828832,-6.483711 3.7086171,-3.659333 7.0124401,-5.705486 11.9397571,-7.394639 1.6007291,-0.548751 3.118776,-1.181409 3.3734375,-1.405908 0.3600794,-0.317429 0.4630208,-0.329396 0.4630208,-0.05383 0,0.385398 0.385363,1.255641 2.5155764,5.680792 4.528593,9.407356 12.77352,15.891426 22.884424,17.997016 1.983034,0.41297 9.077016,0.97457 9.629497,0.76233 0.20733,-0.0796 0.279707,1.1777 0.248817,4.3225 -0.0584,5.94585 -0.212201,7.08369 -1.450086,10.728 -1.620104,4.76956 -3.756602,8.21141 -7.26994,11.71171 -3.256296,3.24422 -6.060266,5.09286 -10.645482,7.0185 -2.904119,1.21964 -9.213956,2.17034 -12.605515,1.89927 z m 129.64584,0.009 c -2.79023,-0.25 -7.26264,-1.22557 -8.88712,-1.93856 -0.9817,-0.43087 -1.8632,-0.7834 -1.95889,-0.7834 -0.33009,0 -3.97457,-2.24292 -5.43737,-3.34631 -3.24252,-2.44584 -6.63262,-6.4315 -8.63118,-10.14744 -0.587,-1.09141 -1.5203,-3.29407 -2.07402,-4.8948 l -1.00675,-2.91041 -0.15755,-5.89033 c -0.11362,-4.2481 -0.0761,-5.85894 0.13471,-5.77776 0.54694,0.21067 7.99701,-0.36826 9.94168,-0.77255 8.74653,-1.81837 16.4569,-7.30149 21.19992,-15.076029 1.01306,-1.660559 3.58284,-7.233523 3.81776,-8.279392 0.11999,-0.534228 0.18745,-0.562007 0.56626,-0.233183 0.23653,0.205312 1.68951,0.794938 3.22886,1.310283 3.10637,1.039958 6.18402,2.586305 8.38807,4.214538 2.0284,1.498465 5.23923,4.588346 6.40399,6.162753 1.06283,1.43664 3.4435,5.28023 3.4435,5.55954 0,0.0949 0.36383,1.00155 0.80851,2.01471 0.95307,2.17148 1.79045,6.2384 2.00876,9.75596 0.12808,2.06369 0.0299,3.19423 -0.54835,6.31687 -0.3874,2.09183 -0.92121,4.23496 -1.18625,4.7625 -0.26504,0.52755 -0.62696,1.40767 -0.80427,1.95583 -0.17731,0.54816 -0.72608,1.67925 -1.21948,2.51354 -4.72316,7.98631 -12.05948,13.33189 -20.35788,14.83367 -3.10989,0.56281 -5.95543,0.80385 -7.67291,0.64997 z M 34.906101,94.828692 c -2.671144,-0.809347 -4.736336,-2.033561 -6.637219,-3.934444 -5.857219,-5.857219 -5.637334,-15.570502 0.47775,-21.104336 4.759984,-4.307538 10.626948,-5.256033 16.307393,-2.636372 3.889193,1.793584 7.462253,6.326984 8.246655,10.463125 1.380184,7.277666 -2.767023,14.457156 -9.795621,16.957821 -2.13283,0.758825 -6.506771,0.888129 -8.598958,0.254206 z m 77.655209,0.318551 c -7.51745,-1.464395 -12.771184,-8.447077 -12.06808,-16.039563 0.72188,-7.795313 8.01429,-13.939377 15.80747,-13.318263 10.457,0.833424 16.76682,11.858834 12.14521,21.221846 -2.51925,5.103796 -6.91776,7.963281 -12.56466,8.168309 -1.46217,0.05309 -2.95614,0.03854 -3.31994,-0.03233 z M 5.4033468,48.487495 C 4.2452073,48.153599 2.9191923,47.389348 2.0243715,46.540022 0.54296673,45.133936 -0.04551953,42.068892 0.78450486,40.082363 2.2021847,36.689378 9.7864264,28.860892 16.334629,24.03146 c 7.182027,-5.29689 16.607782,-9.30284 25.296979,-10.751227 6.55724,-1.093015 9.100818,-0.617427 10.944432,2.046345 1.479346,2.137455 1.489506,4.607161 0.02823,6.860786 -1.025094,1.580931 -2.376792,2.348268 -4.793263,2.721055 -8.613619,1.328817 -10.046018,1.700421 -15.153863,3.931346 -7.427547,3.24409 -13.949196,8.32037 -19.995105,15.56367 -1.990299,2.384478 -2.6888889,3.034842 -3.7285982,3.471206 -1.6004884,0.671722 -2.677422,0.858687 -3.530092,0.612854 z M 144.72045,47.746871 c -0.8869,-0.488172 -1.89772,-1.448557 -3.12639,-2.970382 -2.39606,-2.967759 -6.16743,-6.789666 -8.79212,-8.909939 -7.24114,-5.849519 -16.08593,-9.744964 -23.9448,-10.545828 -4.55727,-0.464413 -6.59247,-1.407004 -7.80225,-3.613579 -1.47425,-2.688955 -0.5531,-6.372955 1.98547,-7.940535 1.74636,-1.078386 3.25976,-1.273143 6.70919,-0.863404 10.25671,1.218343 19.75528,5.09283 28.74093,11.723486 5.24425,3.869815 13.16743,12.120108 14.53524,15.135329 0.99734,2.19855 0.63042,4.731559 -0.95343,6.581925 -1.87296,2.188139 -4.88208,2.762356 -7.35184,1.402927 z M 140.57339,5.4197185 c -0.3291,-0.419645 -0.31975,-0.4290034 0.0999,-0.099896 0.25466,0.1997207 0.46302,0.4080801 0.46302,0.4630209 0,0.2177626 -0.21727,0.077605 -0.56292,-0.3631249 z"
         id="path836"
         inkscape:connector-curvature="0" />
      <path
         style="fill:#fa758d;stroke-width:0.26458335"
         d="m 52.154474,159.87891 c -1.424004,-0.27559 -3.111942,-1.54901 -3.884848,-2.93083 -0.880835,-1.57478 -0.911241,-4.11023 -0.06851,-5.71264 0.743879,-1.41445 2.434939,-2.64519 4.139174,-3.01247 0.943969,-0.20343 8.654192,-0.26641 25.581486,-0.20895 l 24.230264,0.0823 1.29385,0.80001 c 1.87986,1.16235 2.73667,2.51538 2.93451,4.634 0.14239,1.52483 0.0798,1.89058 -0.52911,3.09222 -0.37983,0.74956 -1.09079,1.66807 -1.5799,2.04113 -1.96303,1.49728 -1.4045,1.46786 -27.29654,1.43789 -13.096875,-0.0152 -24.266046,-0.11534 -24.820377,-0.22262 z M 7.654017,147.29882 c -5.900428,-0.85343 -11.4052378,-3.70402 -15.9342828,-8.25136 -6.1676812,-6.1926 -8.9259522,-14.18479 -8.0865372,-23.43105 0.771178,-8.49462 5.637306,-16.451798 12.9322778,-21.147078 2.1578597,-1.388869 5.3764499,-2.844313 7.4746407,-3.380028 1.1792162,-0.301082 2.4387228,-0.659463 2.7989028,-0.796401 0.6015408,-0.228706 0.6931448,-0.158374 1.1248575,0.863656 3.7588642,8.898691 8.7751132,14.532241 16.4158592,18.435991 4.029747,2.05885 8.208229,3.13189 13.286203,3.41194 l 3.02442,0.16679 0.23703,0.79375 c 0.130365,0.43656 0.245366,2.52016 0.255558,4.63021 0.01691,3.49745 -0.05685,4.12802 -0.834543,7.13594 -1.432251,5.53961 -3.69519,9.55185 -7.540932,13.37024 -1.319607,1.31022 -3.129931,2.87951 -4.02294,3.4873 -6.198653,4.21887 -13.411285,5.8266 -21.130514,4.7101 z m 130.042713,0.12605 c -2.44079,-0.25506 -6.62872,-1.57299 -9.34079,-2.93951 -6.51266,-3.2815 -12.27804,-10.1173 -14.24883,-16.89429 -1.10166,-3.78831 -1.33653,-5.39528 -1.3148,-8.99583 0.0119,-1.96453 0.11815,-3.98859 0.23621,-4.49792 l 0.21465,-0.92604 3.2188,-0.17854 c 6.99971,-0.38825 12.4031,-2.24462 17.74467,-6.09629 5.00822,-3.61129 8.6312,-8.230424 11.16476,-14.234545 0.61309,-1.452917 1.15875,-2.641666 1.21258,-2.641666 0.0538,0 0.54677,0.173366 1.09541,0.385257 0.54865,0.211892 1.74143,0.572273 2.65062,0.800847 2.42852,0.610536 6.25372,2.569268 8.88085,4.547518 8.40812,6.331409 12.48391,16.562849 10.99757,27.607199 -0.50666,3.76481 -2.42696,8.45549 -5.10415,12.46785 -1.20859,1.81133 -5.17408,5.58584 -7.43359,7.07559 -1.13059,0.74543 -2.17857,1.35532 -2.32885,1.35532 -0.15028,0 -0.46978,0.17787 -0.71,0.39527 -0.51876,0.46947 -4.51976,1.89459 -6.71335,2.39123 -2.07769,0.4704 -7.44182,0.66906 -10.22176,0.37855 z M 34.641517,94.553454 C 29.743879,93.146109 25.92365,89.154838 24.596188,84.058359 22.616562,76.458068 27.509107,68.373285 35.324132,66.330755 c 2.517865,-0.658069 6.426554,-0.431012 8.710094,0.505973 3.75621,1.541248 6.65298,4.396084 8.297817,8.177694 0.790943,1.818439 0.830176,2.072016 0.827533,5.348526 -0.0032,3.93842 -0.387951,5.349959 -2.228364,8.174733 -1.912167,2.934909 -4.592494,4.962858 -7.917045,5.990085 -2.156751,0.666395 -6.100834,0.678497 -8.37265,0.02569 z m 76.067713,-0.108275 c -2.4383,-0.83434 -4.12463,-1.893819 -5.95907,-3.743929 -2.98328,-3.008757 -4.23516,-6.462945 -4.03454,-11.132052 0.1044,-2.429852 0.20295,-2.83608 1.20726,-4.976382 1.98538,-4.231089 5.63232,-7.246831 10.00694,-8.274997 2.61936,-0.615624 6.30779,-0.390763 8.47987,0.516967 8.11338,3.390651 11.64245,12.367797 7.91143,20.124901 -1.7733,3.686834 -5.10176,6.482197 -9.1271,7.665268 -2.1981,0.646033 -6.3271,0.558546 -8.48479,-0.179776 z M 3.8999895,47.721503 C 1.9316297,46.771231 1.0885667,45.631049 0.61091703,43.273259 0.2800926,41.640232 0.28105569,41.634779 1.2404719,39.701384 2.6727277,36.815137 8.4536566,30.435485 12.889944,26.845388 17.478539,23.132038 20.862612,20.981314 26.06983,18.469 c 4.545324,-2.192972 8.941329,-3.702047 13.598771,-4.668234 7.501448,-1.556176 10.272776,-1.327555 12.285943,1.013531 1.744546,2.028712 2.066613,4.22047 0.96715,6.581762 -1.000112,2.147925 -2.449531,2.990856 -5.947423,3.458811 -7.500208,1.003395 -12.202647,2.476042 -18.021295,5.64366 -6.38515,3.476017 -11.277394,7.676711 -17.244796,14.807126 -1.654479,1.97693 -3.0846741,2.873182 -4.8970726,3.068823 -1.0483692,0.113165 -1.5634838,-0.0024 -2.9111179,-0.652976 z M 145.23735,47.848238 c -1.40984,-0.668462 -2.18586,-1.420722 -4.96935,-4.817234 -4.38495,-5.350656 -10.34806,-10.081279 -16.72648,-13.269373 -5.23685,-2.617512 -9.53046,-3.934574 -15.22435,-4.670065 -3.39777,-0.438896 -4.16021,-0.66617 -5.63167,-1.67872 -3.53951,-2.435641 -2.707099,-8.331685 1.42125,-10.066859 1.28262,-0.539097 1.73733,-0.590934 4.08894,-0.466151 9.03202,0.479264 20.41729,4.82259 29.29158,11.174341 5.14992,3.686048 11.35781,9.727499 14.41739,14.030868 1.80306,2.536047 2.04833,5.224065 0.67079,7.351455 -0.87199,1.34664 -1.69394,2.003907 -3.21412,2.570131 -1.65157,0.615164 -2.5666,0.580022 -4.12398,-0.158393 z"
         id="path834"
         inkscape:connector-curvature="0" />
      <path
         style="fill:#926d1e;stroke-width:0.26458335"
         d="m 52.154474,159.87891 c -1.424004,-0.27559 -3.111942,-1.54901 -3.884848,-2.93083 -0.880835,-1.57478 -0.911241,-4.11023 -0.06851,-5.71264 0.743879,-1.41445 2.434939,-2.64519 4.139174,-3.01247 0.943969,-0.20343 8.654192,-0.26641 25.581486,-0.20895 l 24.230264,0.0823 1.29385,0.80001 c 1.87986,1.16235 2.73667,2.51538 2.93451,4.634 0.14239,1.52483 0.0798,1.89058 -0.52911,3.09222 -0.37983,0.74956 -1.09079,1.66807 -1.5799,2.04113 -1.96303,1.49728 -1.4045,1.46786 -27.29654,1.43789 -13.096875,-0.0152 -24.266046,-0.11534 -24.820377,-0.22262 z M 34.641517,94.553454 C 29.743879,93.146109 25.92365,89.154838 24.596188,84.058359 22.616562,76.458068 27.509107,68.373285 35.324132,66.330755 c 2.517865,-0.658069 6.426554,-0.431012 8.710094,0.505973 3.75621,1.541248 6.65298,4.396084 8.297817,8.177694 0.790943,1.818439 0.830176,2.072016 0.827533,5.348526 -0.0032,3.93842 -0.387951,5.349959 -2.228364,8.174733 -1.912167,2.934909 -4.592494,4.962858 -7.917045,5.990085 -2.156751,0.666395 -6.100834,0.678497 -8.37265,0.02569 z m 76.067713,-0.108275 c -2.4383,-0.83434 -4.12463,-1.893819 -5.95907,-3.743929 -2.98328,-3.008757 -4.23516,-6.462945 -4.03454,-11.132052 0.1044,-2.429852 0.20295,-2.83608 1.20726,-4.976382 1.98538,-4.231089 5.63232,-7.246831 10.00694,-8.274997 2.61936,-0.615624 6.30779,-0.390763 8.47987,0.516967 8.11338,3.390651 11.64245,12.367797 7.91143,20.124901 -1.7733,3.686834 -5.10176,6.482197 -9.1271,7.665268 -2.1981,0.646033 -6.3271,0.558546 -8.48479,-0.179776 z M 3.8999895,47.721503 C 1.9316297,46.771231 1.0885667,45.631049 0.61091703,43.273259 0.2800926,41.640232 0.28105569,41.634779 1.2404719,39.701384 2.6727277,36.815137 8.4536566,30.435485 12.889944,26.845388 17.478539,23.132038 20.862612,20.981314 26.06983,18.469 c 4.545324,-2.192972 8.941329,-3.702047 13.598771,-4.668234 7.501448,-1.556176 10.272776,-1.327555 12.285943,1.013531 1.744546,2.028712 2.066613,4.22047 0.96715,6.581762 -1.000112,2.147925 -2.449531,2.990856 -5.947423,3.458811 -7.500208,1.003395 -12.202647,2.476042 -18.021295,5.64366 -6.38515,3.476017 -11.277394,7.676711 -17.244796,14.807126 -1.654479,1.97693 -3.0846741,2.873182 -4.8970726,3.068823 -1.0483692,0.113165 -1.5634838,-0.0024 -2.9111179,-0.652976 z M 145.23735,47.848238 c -1.40984,-0.668462 -2.18586,-1.420722 -4.96935,-4.817234 -4.38495,-5.350656 -10.34806,-10.081279 -16.72648,-13.269373 -5.23685,-2.617512 -9.53046,-3.934574 -15.22435,-4.670065 -3.39777,-0.438896 -4.16021,-0.66617 -5.63167,-1.67872 -3.53951,-2.435641 -2.707099,-8.331685 1.42125,-10.066859 1.28262,-0.539097 1.73733,-0.590934 4.08894,-0.466151 9.03202,0.479264 20.41729,4.82259 29.29158,11.174341 5.14992,3.686048 11.35781,9.727499 14.41739,14.030868 1.80306,2.536047 2.04833,5.224065 0.67079,7.351455 -0.87199,1.34664 -1.69394,2.003907 -3.21412,2.570131 -1.65157,0.615164 -2.5666,0.580022 -4.12398,-0.158393 z"
         id="path832"
         inkscape:connector-curvature="0" />
      <path
         style="fill:#624301;stroke-width:0.26458335"
         d="m 51.873169,159.2172 c -2.252607,-0.80295 -3.819808,-2.91124 -3.855411,-5.1865 -0.02463,-1.57395 1.233382,-3.68875 2.742436,-4.61021 l 1.302009,-0.79504 24.362574,-0.0802 c 16.391494,-0.054 24.673233,0.0102 25.312073,0.19626 3.49603,1.018 5.13564,4.55693 3.55573,7.67473 -0.74907,1.47822 -1.77197,2.30171 -3.50811,2.82421 -1.794422,0.54004 -48.39195,0.51835 -49.911301,-0.0232 z M 36.625892,94.608186 c -4.178038,-0.647364 -8.137384,-3.293147 -10.170305,-6.796175 -3.310946,-5.705266 -2.29107,-12.861793 2.490835,-17.478333 2.946773,-2.844866 5.838457,-3.953981 10.325304,-3.960294 2.418368,-0.0034 2.995885,0.08747 4.459708,0.701789 3.565335,1.496243 6.128965,3.801063 7.686572,6.910578 2.89588,5.781172 1.840817,12.131588 -2.78669,16.773054 -3.068179,3.077438 -7.603098,4.531498 -12.005424,3.849381 z m 75.670838,-0.103738 c -3.84841,-0.666811 -7.99144,-3.880818 -9.87313,-7.659209 -2.705681,-5.432943 -1.59731,-11.954613 2.78113,-16.364315 2.86309,-2.883522 6.01033,-4.103108 10.53158,-4.081092 2.39879,0.0117 3.00992,0.110604 4.47575,0.724474 2.29598,0.961531 4.48884,2.492285 5.77089,4.028443 6.56968,7.87183 3.37602,19.546869 -6.27789,22.950024 -1.47925,0.521457 -5.46866,0.737762 -7.40833,0.401675 z M 4.8741801,47.439695 C 2.4941498,46.715724 1.4449578,45.378766 1.2385087,42.80686 1.0549593,40.520219 1.788252,39.018659 4.7343875,35.648364 8.113376,31.782897 9.4394544,30.460991 12.6811,27.726652 21.647152,20.16376 32.081692,15.372018 43.013201,13.79757 c 4.31268,-0.621149 5.592927,-0.556747 7.227729,0.36359 3.971251,2.235679 3.495781,8.086553 -0.789556,9.715836 -0.409443,0.155668 -1.925791,0.395595 -3.369667,0.533167 -5.036918,0.479923 -10.080271,2.014779 -15.67842,4.771449 -6.602143,3.251062 -12.471726,7.981672 -17.845887,14.382951 -0.987206,1.175882 -2.079231,2.400175 -2.426722,2.720652 -1.3143782,1.212202 -3.4934257,1.690783 -5.2564979,1.15448 z M 145.50194,47.303059 c -1.11555,-0.410038 -2.10127,-1.372881 -5.52642,-5.398161 -6.96807,-8.188963 -17.03283,-14.359623 -27.14963,-16.645319 -1.96453,-0.443849 -4.52437,-0.889529 -5.68854,-0.990401 -2.49019,-0.215768 -3.37154,-0.548532 -4.64447,-1.753574 -1.21055,-1.145998 -1.82191,-3.382425 -1.35273,-4.948425 0.37355,-1.246794 1.27786,-2.609943 2.16074,-3.257079 2.93602,-2.152047 14.36515,-0.09766 23.8125,4.280299 6.24832,2.895507 12.15062,6.937105 17.11798,11.721536 3.3797,3.25523 7.53299,8.133602 8.1474,9.569763 1.06565,2.49093 0.27388,5.592762 -1.77344,6.947619 -1.28269,0.848847 -3.51829,1.056376 -5.10339,0.473742 z"
         id="path830"
         inkscape:connector-curvature="0" />
      <path
         style="fill:#080500;stroke-width:0.26458335;fill-opacity:1"
         d="m 51.177976,158.37328 c -1.576713,-0.92461 -2.116667,-1.41012 -2.116667,-1.90324 0,-0.27878 0.275998,-0.14026 0.872493,0.43788 0.479869,0.46511 1.110901,0.84565 1.402292,0.84565 0.291388,0 0.657767,0.12797 0.81417,0.28437 0.156406,0.15641 0.745765,0.44884 1.309688,0.64985 l 1.025316,0.36547 -1.058334,0.009 c -0.679598,0.006 -1.48441,-0.24074 -2.248958,-0.68909 z m 48.369141,0.52247 c 0.190995,-0.0764 0.419201,-0.067 0.507123,0.0209 0.0879,0.0879 -0.06836,0.15045 -0.347269,0.13896 -0.308227,-0.0127 -0.37092,-0.0754 -0.159854,-0.15985 z m 1.637113,-0.21614 c 0.18115,-0.21828 0.64222,-0.39308 1.02458,-0.38846 0.6684,0.008 0.67541,0.0234 0.18162,0.39688 -0.28248,0.21365 -0.74354,0.38846 -1.02459,0.38846 -0.42422,0 -0.45505,-0.0674 -0.18161,-0.39688 z m 2.43086,-1.20716 c 0.0637,-0.19099 0.27202,-0.39935 0.46302,-0.46302 0.19843,-0.0661 0.29765,0.0331 0.23151,0.23151 -0.0637,0.191 -0.27203,0.39936 -0.46302,0.46302 -0.19844,0.0661 -0.29766,-0.0331 -0.23151,-0.23151 z m -2.29857,-0.24804 c 0.0899,-0.14552 0.21603,-0.26459 0.2802,-0.26459 0.0642,0 0.11667,0.11907 0.11667,0.26459 0,0.14552 -0.12609,0.26458 -0.2802,0.26458 -0.1541,0 -0.20661,-0.11906 -0.11667,-0.26458 z m -49.881612,-1.86639 c -0.18858,-0.35236 -0.240493,-1.02516 -0.133933,-1.73575 0.172162,-1.14806 -0.01191,-1.4302 -0.569386,-0.87273 -0.207129,0.20713 -0.344807,0.19514 -0.491889,-0.0428 -0.125579,-0.20319 0.02708,-0.5178 0.396322,-0.8168 0.690229,-0.55891 1.071121,-0.62165 1.071121,-0.17642 0,0.17044 0.191521,0.52152 0.425603,0.78018 0.61699,0.68177 0.658974,3.22568 0.05527,3.3489 -0.251518,0.0513 -0.579123,-0.15943 -0.753107,-0.48453 z m 50.211112,-1.1996 c -0.28449,-0.28449 -0.24301,-1.43193 0.0518,-1.43193 0.37853,0 0.47802,0.33214 0.30344,1.01301 -0.0869,0.33887 -0.24674,0.52739 -0.3552,0.41892 z m -53.213096,-0.58467 c -0.07175,-0.11609 -0.02106,-0.38398 0.112625,-0.59531 0.189783,-0.3 0.243962,-0.25373 0.247126,0.21107 0.0042,0.61199 -0.13026,0.75557 -0.359751,0.38424 z m 56.288206,-1.13765 c -0.29152,-0.81069 -0.78317,-1.56105 -1.23244,-1.88095 -0.8318,-0.59229 -0.8008,-0.94417 0.0434,-0.49238 0.78257,0.41882 1.79861,1.86573 2.00984,2.86216 0.2876,1.35669 -0.27834,1.01963 -0.82077,-0.48883 z M 49.325893,151.18 c 0,-0.35095 1.041781,-1.20409 1.234723,-1.01115 0.09523,0.0952 -0.04302,0.412 -0.307213,0.70393 -0.499192,0.5516 -0.92751,0.69347 -0.92751,0.30722 z m 1.984375,-1.62851 c 0.08994,-0.14552 0.342114,-0.26458 0.560395,-0.26458 0.218281,0 0.323292,0.11906 0.233355,0.26458 -0.08994,0.14552 -0.342115,0.26458 -0.560396,0.26458 -0.218281,0 -0.323292,-0.11906 -0.233354,-0.26458 z m 1.934765,-0.44532 c 0.190995,-0.0764 0.419201,-0.067 0.507119,0.0209 0.08792,0.0879 -0.06835,0.15045 -0.347265,0.13897 -0.308227,-0.0127 -0.37092,-0.0754 -0.159854,-0.15985 z M 40.197767,94.150954 c 0.436563,-0.209658 1.596658,-0.583009 2.577989,-0.82967 1.970286,-0.495234 3.458655,-1.388581 5.161344,-3.097935 2.071119,-2.079225 2.918793,-3.240288 3.240085,-4.437959 0.175448,-0.65401 0.395777,-1.308172 0.489619,-1.453692 0.09384,-0.145521 0.309833,-0.919427 0.479978,-1.719792 0.465635,-2.190348 -0.03618,-5.456947 -1.184214,-7.708752 -1.110245,-2.177679 -2.476627,-3.799795 -4.425762,-5.254088 -2.484083,-1.853427 -4.106918,-2.458712 -7.066643,-2.63571 -0.10914,-0.0065 -0.198437,-0.147466 -0.198437,-0.313198 0,-0.492625 2.849777,-0.08416 4.670975,0.669494 4.175639,1.727986 6.749593,4.552349 8.339572,9.150889 0.628856,1.818791 0.671163,5.06615 0.09819,7.536781 -0.504164,2.173904 -2.170991,5.098164 -3.814575,6.692231 -1.647349,1.597718 -5.637668,3.505626 -7.665151,3.664968 -1.460871,0.114811 -1.477706,0.108501 -0.702967,-0.263567 z m 76.211773,0.121669 c -0.17516,-0.283417 0.28553,-0.436362 2.02575,-0.672531 3.68,-0.49942 8.63246,-4.987169 9.4982,-8.606936 0.94656,-3.957733 0.99047,-4.309115 0.73907,-5.914739 -0.35591,-2.273075 -0.69639,-3.253417 -1.72678,-4.971929 -1.65319,-2.75723 -3.51975,-4.376922 -7.32197,-6.353548 -0.46464,-0.241546 -1.64846,-0.52152 -2.63073,-0.622165 -0.98226,-0.100645 -1.78594,-0.303405 -1.78594,-0.45058 0,-0.474982 3.47627,-0.08811 4.81413,0.535755 0.68324,0.318609 1.30601,0.579289 1.38393,0.579289 0.0779,0 0.78513,0.411615 1.57158,0.914702 1.95811,1.25259 3.73213,3.324542 4.92382,5.750745 0.85348,1.73763 1.02642,2.39535 1.18266,4.497917 0.35596,4.790278 -0.83907,8.484671 -3.6637,11.32622 -1.92416,1.93567 -3.52155,2.903863 -6.0731,3.680939 -1.98881,0.605692 -2.70592,0.680619 -2.93692,0.306861 z M 34.220613,93.871197 c -0.66806,-0.184282 -1.677964,-0.649886 -2.24423,-1.034674 -0.56627,-0.384789 -1.150769,-0.704954 -1.298888,-0.711473 -0.40409,-0.01778 -2.66728,-2.147239 -3.034389,-2.855076 -0.566394,-1.092081 0.0109,-1.003787 1.01315,0.154953 0.534935,0.618463 1.099735,1.124479 1.255115,1.124479 0.155379,0 0.50932,0.25173 0.786534,0.559401 0.511927,0.568166 2.656139,1.640199 4.9358,2.467731 0.691224,0.250921 1.256771,0.505902 1.256771,0.566627 0,0.210354 -1.460794,0.06155 -2.669863,-0.271968 z m 75.694867,-0.316582 c -2.05059,-0.789445 -3.64933,-1.973855 -5.36826,-3.977021 -1.62951,-1.898959 -1.37324,-2.20018 0.34194,-0.401915 0.72064,0.755549 1.43166,1.373727 1.58003,1.373727 0.14837,0 0.71659,0.392573 1.26271,0.872387 0.54612,0.479811 1.52873,1.087575 2.18358,1.350584 0.65484,0.263009 1.66687,0.702223 2.24896,0.976027 1.04336,0.490786 1.0471,0.49762 0.26458,0.483065 -0.43656,-0.0081 -1.56766,-0.312703 -2.51354,-0.676854 z m 8.00364,-1.687378 c -0.63793,-0.259802 -0.76975,-0.649626 -0.31476,-0.930825 0.39036,-0.241258 1.87796,0.413433 1.75802,0.773703 -0.13035,0.391543 -0.71213,0.454879 -1.44326,0.157122 z M 38.676879,91.718446 c -0.365495,-0.365492 0.116485,-0.639873 1.124013,-0.639873 0.564907,0 1.100688,0.119062 1.190625,0.264583 0.0908,0.14692 -0.108166,0.266189 -0.447405,0.268195 -0.33601,0.0021 -0.85208,0.06841 -1.146823,0.147614 -0.29474,0.0792 -0.618926,0.06097 -0.72041,-0.04052 z m 75.736511,-0.124703 c 0,-0.296225 2.22755,-0.505873 2.50032,-0.235321 0.15875,0.157465 0.15875,0.254638 0,0.263764 -0.13825,0.0079 -0.75737,0.0455 -1.37584,0.08346 -0.61846,0.03796 -1.12448,-0.01241 -1.12448,-0.1119 z m -71.525691,-1.48531 c -0.388149,-0.388147 -0.103926,-0.658035 1.553914,-1.475552 1.171712,-0.577797 1.778,-1.043281 1.878044,-1.441887 0.208142,-0.829302 0.828643,-1.306264 1.207069,-0.927838 0.210156,0.210156 0.213664,0.39348 0.0122,0.637016 -0.15558,0.188069 -0.323175,0.69913 -0.37243,1.135692 -0.0824,0.730298 -0.163843,0.788176 -1.018836,0.724001 -0.721882,-0.05418 -1.124112,0.108204 -1.802268,0.727604 -0.896461,0.818793 -1.151303,0.927351 -1.45769,0.620964 z M 118.97194,89.97063 c 0.16354,-0.490596 0.73312,-0.571966 0.73312,-0.10473 0,0.230407 -0.18852,0.418923 -0.41892,0.418923 -0.23041,0 -0.3718,-0.141388 -0.3142,-0.314193 z m 1.57544,-0.411456 c 0.0548,-0.475097 0.32439,-0.840447 0.78076,-1.058119 0.38336,-0.182859 0.89212,-0.630222 1.13057,-0.994143 0.23845,-0.363919 0.6619,-0.661673 0.941,-0.661673 0.2791,0 0.58104,-0.119062 0.67098,-0.264583 0.0899,-0.145521 0.30532,-0.261935 0.47863,-0.258699 0.17331,0.0032 0.0405,0.217186 -0.29516,0.475446 -0.33566,0.258262 -0.75536,0.761629 -0.93267,1.118597 -0.17731,0.356968 -0.59681,0.688324 -0.93222,0.736349 -0.3952,0.05659 -0.70462,0.359225 -0.87915,0.859896 -0.35218,1.010256 -1.07796,1.045633 -0.96274,0.04693 z m -87.509055,0.171093 c -0.09857,-0.159486 -0.0061,-0.463117 0.205552,-0.674738 0.336629,-0.33663 0.426143,-0.334904 0.715542,0.01381 0.18193,0.21921 0.253971,0.522841 0.160094,0.674738 -0.223626,0.361833 -0.854004,0.353787 -1.081188,-0.01381 z m 76.215695,0.02539 c -0.0899,-0.145521 -0.0897,-0.383969 5.3e-4,-0.529881 0.19349,-0.313081 1.19018,0.138451 1.19018,0.539189 0,0.337278 -0.98116,0.329607 -1.19062,-0.0093 z m -77.996457,-1.5875 c -0.07611,-0.291042 -0.04504,-0.529167 0.06903,-0.529167 0.328102,0 0.815215,0.691716 0.622694,0.88424 -0.309584,0.309584 -0.55022,0.186063 -0.691729,-0.355073 z M 107.39106,87.88597 c -0.0959,-0.155202 -0.11087,-0.345718 -0.0332,-0.42337 0.18952,-0.189524 0.70555,0.144417 0.70555,0.456588 0,0.33813 -0.45678,0.315561 -0.67233,-0.03322 z M 27.919884,86.739816 c -0.329047,-0.350253 -0.480172,-0.702977 -0.338664,-0.790435 0.252293,-0.155924 1.250865,1.104943 1.041161,1.314646 -0.05956,0.05956 -0.375684,-0.176334 -0.702497,-0.524211 z m -2.121678,-0.713584 c -0.283446,-0.640953 -0.663247,-2.18862 -0.844005,-3.439263 -0.386956,-2.677308 -0.043,-5.948955 0.798922,-7.599265 2.060282,-4.038486 4.680114,-6.45583 8.373901,-7.72668 1.772778,-0.609925 1.705118,-0.5994 1.705118,-0.265263 0,0.23949 -3.71779,2.122395 -4.190661,2.122395 -0.413393,0 -4.198533,3.856569 -4.804132,4.894792 -0.898478,1.540322 -1.419852,4.128198 -1.439238,7.14375 -0.01418,2.207201 0.08742,2.899624 0.612891,4.176696 0.736843,1.790766 0.546621,2.410103 -0.212796,0.692838 z m 76.624904,0.380574 c -1.43538,-2.785274 -1.68019,-7.318364 -0.55689,-10.311836 0.92873,-2.475 2.0107,-4.164253 3.7629,-5.874941 1.48676,-1.451549 3.87353,-2.781048 5.60927,-3.124533 0.81839,-0.161949 0.88658,-0.135237 0.58654,0.22978 -0.18672,0.227168 -0.7225,0.560485 -1.19062,0.740706 -3.56048,1.370746 -5.88579,3.469735 -7.70963,6.959246 l -1.22052,2.335196 0.14809,3.485637 c 0.14255,3.355142 0.42276,4.958691 0.99166,5.674844 0.14729,0.185418 0.20009,0.404842 0.11732,0.487609 -0.0828,0.08277 -0.32492,-0.188003 -0.53812,-0.601708 z m 1.745,-0.421463 c -0.14075,-0.181901 -0.33124,-0.541842 -0.42331,-0.799872 -0.14219,-0.398447 -0.0886,-0.426948 0.3558,-0.189129 0.28777,0.154008 0.52321,0.51395 0.52321,0.799872 0,0.604552 -0.10162,0.646729 -0.4557,0.189129 z M 29.082865,85.158912 c -0.226314,-0.345395 -0.485021,-1.248944 -0.574905,-2.007888 -0.17739,-1.497767 -0.514117,-1.810761 -1.424128,-1.323737 -0.57531,0.307895 -0.584674,0.288713 -0.448577,-0.918737 0.158337,-1.404765 0.278709,-1.599991 0.851101,-1.380342 0.247981,0.09516 0.408286,0.482698 0.408286,0.987034 0,0.629399 0.09605,0.793504 0.396875,0.678066 0.218282,-0.08376 0.41061,-0.0072 0.427395,0.17013 0.01677,0.177334 0.04655,0.475218 0.06615,0.661961 0.01961,0.186743 0.164952,0.424868 0.323016,0.529166 0.365057,0.24088 0.903235,1.796225 0.903235,2.610364 0,0.797472 -0.403693,0.794858 -0.928444,-0.006 z m 75.877775,-0.881509 c -0.3891,-0.593662 -0.47508,-1.363192 -0.50405,-4.511305 -0.0311,-3.381005 0.0122,-3.785926 0.39688,-3.707418 0.36249,0.07399 0.42156,0.426484 0.36801,2.196203 -0.0443,1.465466 0.08,2.536666 0.40791,3.514103 0.46362,1.38195 0.4807,3.22417 0.0299,3.22417 -0.12625,0 -0.44065,-0.322088 -0.69866,-0.715753 z M 26.748115,84.023016 c -0.09701,-0.09701 -0.17277,-0.364903 -0.168343,-0.595312 0.0066,-0.344038 0.05824,-0.332608 0.288835,0.06394 0.284898,0.489926 0.202303,0.854167 -0.120492,0.53137 z m 99.306945,-4.189235 c 0,-0.363802 0.11906,-0.661458 0.26458,-0.661458 0.14552,0 0.26459,-0.178594 0.26459,-0.396875 0,-0.218282 0.13294,-0.396875 0.29544,-0.396875 0.17726,0 0.23163,0.238125 0.1359,0.595312 -0.0877,0.327422 -0.16116,0.803672 -0.16315,1.058333 -0.002,0.254662 -0.1822,0.463021 -0.40048,0.463021 -0.24695,0 -0.39688,-0.249883 -0.39688,-0.661458 z M 28.688392,76.394198 c 0,-0.218282 0.119063,-0.396875 0.264584,-0.396875 0.14552,0 0.264583,0.178593 0.264583,0.396875 0,0.218281 -0.119063,0.396875 -0.264583,0.396875 -0.145521,0 -0.264584,-0.178594 -0.264584,-0.396875 z M 28.423809,74.96063 c 0,-0.279141 0.0761,-0.705843 0.169111,-0.948227 0.134903,-0.35155 0.214368,-0.369308 0.392824,-0.08779 0.370896,0.585102 0.268404,1.543539 -0.16506,1.543539 -0.218281,0 -0.396875,-0.228388 -0.396875,-0.507526 z m 95.665251,-0.0013 c -0.50524,-0.558284 -0.31562,-0.729658 0.3446,-0.311433 0.19964,0.126462 0.31566,0.371898 0.25782,0.545414 -0.0679,0.203819 -0.28117,0.121002 -0.60242,-0.233981 z M 45.758486,72.906563 c -1.479034,-1.937033 -1.121764,-2.317668 0.648047,-0.690425 1.13221,1.041006 1.313516,1.513428 0.67487,1.758498 -0.255556,0.09807 -0.716915,-0.274418 -1.322917,-1.068073 z m 76.195534,0.180343 c -0.0899,-0.145521 -0.0931,-0.378447 -0.007,-0.517612 0.21764,-0.352145 0.93319,-0.03498 0.93319,0.413628 0,0.423042 -0.68156,0.499573 -0.92604,0.103984 z m -15.47813,-1.433161 c 0,-0.230407 0.18852,-0.418922 0.41893,-0.418922 0.23041,0 0.37179,0.141385 0.31419,0.314192 -0.16353,0.490596 -0.73312,0.571966 -0.73312,0.10473 z m 16.40417,0.110244 c 0,-0.145521 0.11906,-0.264583 0.26458,-0.264583 0.14552,0 0.26459,0.119062 0.26459,0.264583 0,0.145521 -0.11907,0.264584 -0.26459,0.264584 -0.14552,0 -0.26458,-0.119063 -0.26458,-0.264584 z M 33.847767,71.234823 c 0.08994,-0.145521 0.275559,-0.264584 0.412491,-0.264584 0.136933,0 0.248968,0.119063 0.248968,0.264584 0,0.14552 -0.185621,0.264583 -0.412491,0.264583 -0.22687,0 -0.338905,-0.119063 -0.248968,-0.264583 z m 86.177593,-0.142357 c -0.44146,-0.500528 -0.0412,-0.499464 0.62132,0.0016 0.38727,0.29292 0.41598,0.388054 0.11671,0.38681 -0.21828,-7.94e-4 -0.55039,-0.175715 -0.73803,-0.388461 z M 32.032294,70.044198 c 0.08376,-0.218282 0.318151,-0.396875 0.520864,-0.396875 0.501264,0 0.466966,0.434792 -0.04995,0.63315 -0.597545,0.229301 -0.641172,0.207412 -0.470916,-0.236275 z m 11.065011,-0.149895 c -0.09592,-0.155202 -0.110869,-0.345718 -0.03322,-0.42337 0.189526,-0.189524 0.705557,0.144417 0.705557,0.456589 0,0.338129 -0.45678,0.31556 -0.672338,-0.03322 z m 73.647885,-0.02217 c -0.54873,-0.154273 -0.55729,-0.177977 -0.0828,-0.229248 1.54641,-0.167111 2.87703,-0.09422 2.96277,0.162301 0.10605,0.317254 -1.82959,0.362249 -2.87993,0.06695 z M 39.470163,69.736678 c 0.181901,-0.0734 0.479558,-0.0734 0.661459,0 0.181901,0.0734 0.03307,0.133453 -0.33073,0.133453 -0.363802,0 -0.51263,-0.06006 -0.330729,-0.133453 z m 1.604037,-0.0055 c 0.190995,-0.07643 0.4192,-0.06703 0.507119,0.02088 0.08792,0.08792 -0.06835,0.150453 -0.347266,0.138964 -0.308226,-0.0127 -0.370919,-0.07539 -0.159853,-0.15985 z M 3.4752618,46.35965 C 2.8460245,45.864691 1.7008919,44.267852 1.7008919,43.885365 c 0,-0.467622 0.5053436,-0.06974 0.7927816,0.624202 0.1802951,0.435274 0.7305226,1.040297 1.2227243,1.344496 0.4922017,0.304197 0.8949108,0.662437 0.8949108,0.796089 0,0.387858 -0.4054607,0.284178 -1.1360468,-0.290502 z M 144.68472,46.39284 c -0.83966,-0.512019 -2.05684,-1.873197 -1.85528,-2.074762 0.17913,-0.179131 1.42198,0.71446 1.58517,1.139711 0.0812,0.211736 0.44843,0.499301 0.81596,0.639038 0.36753,0.139734 0.66824,0.376073 0.66824,0.525195 0,0.39011 -0.28753,0.335833 -1.21409,-0.229182 z M 9.241517,46.099406 c 0.089937,-0.145521 0.2825829,-0.264583 0.4281038,-0.264583 0.1455208,0 0.191,0.119062 0.1010629,0.264583 -0.089937,0.145521 -0.282583,0.264583 -0.4281038,0.264583 -0.1455208,0 -0.1910001,-0.119062 -0.1010629,-0.264583 z m 137.980213,0 c 0,-0.145521 0.12609,-0.264583 0.2802,-0.264583 0.15411,0 0.20661,0.119062 0.11667,0.264583 -0.0899,0.145521 -0.21602,0.264583 -0.2802,0.264583 -0.0642,0 -0.11667,-0.119062 -0.11667,-0.264583 z m 3.23438,-0.198438 c 0.22328,-0.254661 0.60399,-0.853865 0.84602,-1.331568 0.24203,-0.4777 0.54884,-0.801309 0.68181,-0.71913 0.50609,0.31278 -0.81948,2.513719 -1.51394,2.513719 -0.37814,0 -0.37953,-0.04601 -0.0139,-0.463021 z M 5.9342253,45.995422 c 0,-0.05719 0.1785937,-0.172516 0.396875,-0.256281 0.2182812,-0.08376 0.396875,-0.03697 0.396875,0.103984 0,0.140954 -0.1785938,0.256281 -0.396875,0.256281 -0.2182813,0 -0.396875,-0.04679 -0.396875,-0.103984 z m 4.7304217,-1.41737 c 0.345115,-0.63632 1.884162,-2.076752 1.884162,-1.763432 0,0.361421 -1.575369,2.226453 -1.880656,2.226453 -0.161782,0 -0.16306,-0.168836 -0.0035,-0.463021 z M 146.891,44.408176 c -0.65567,-0.497723 -0.57381,-0.954603 0.17103,-0.954603 0.39081,0 0.9395,-0.347893 1.43028,-0.906865 0.78651,-0.895779 1.11067,-0.956643 1.11067,-0.208537 0,0.330558 -1.87981,2.453423 -2.15169,2.429905 -0.0535,-0.0046 -0.30563,-0.166582 -0.56029,-0.3599 z M 4.8284627,43.476697 C 4.4385754,43.066868 4.0361759,42.28699 3.9342425,41.743637 3.7741696,40.890379 3.8121055,40.768279 4.2125471,40.847874 c 0.2602177,0.05172 0.6613949,0.598633 0.914363,1.246518 0.2478987,0.6349 0.6500204,1.265894 0.8936038,1.40221 0.2435833,0.136316 0.4428781,0.360995 0.4428781,0.499284 0,0.506101 -0.9450309,0.205997 -1.6349293,-0.519189 z M 151.47877,40.285351 c -0.317,-0.869397 -0.7795,-1.7326 -1.02778,-1.918229 -0.24828,-0.185629 -0.80614,-0.813758 -1.23969,-1.395841 -0.43355,-0.582083 -2.7865,-3.070945 -5.22878,-5.5308 -2.44228,-2.459857 -4.39309,-4.51989 -4.33513,-4.577852 0.36164,-0.361633 6.30674,5.374698 10.06523,9.711777 1.64181,1.894541 2.80077,3.916505 2.80077,4.886293 0,0.879795 -0.487,0.326554 -1.03462,-1.175348 z M 14.116282,40.711743 c 0.352791,-0.383765 0.694733,-0.697754 0.759878,-0.697754 0.261139,0 -0.67842,1.169615 -1.027078,1.278565 -0.205827,0.06432 -0.08559,-0.197049 0.2672,-0.580811 z M 1.7008919,40.662308 c 0,-0.718476 0.7147851,-1.803976 1.994924,-3.029569 0.7986818,-0.764651 1.1313954,-0.972291 0.9299548,-0.580366 -0.1725136,0.33564 -0.4903152,0.678045 -0.7062258,0.760899 -0.2159132,0.08285 -0.7456197,0.850033 -1.177126,1.704846 -0.8071406,1.598932 -1.041527,1.856425 -1.041527,1.14419 z M 139.29354,40.56055 c -0.42163,-0.787818 -0.32707,-0.941279 0.25527,-0.414269 0.56693,0.513064 0.68908,0.926042 0.27389,0.926042 -0.1404,0 -0.37852,-0.230299 -0.52916,-0.511773 z m 10.44173,-0.546561 c -0.0899,-0.145521 -0.0374,-0.264583 0.11668,-0.264583 0.1541,0 0.28019,0.119062 0.28019,0.264583 0,0.145521 -0.0525,0.264584 -0.11667,0.264584 -0.0642,0 -0.19026,-0.119063 -0.2802,-0.264584 z M 15.752352,38.946142 c 0.227491,-0.34262 0.579369,-0.678194 0.78195,-0.745721 0.292761,-0.09759 0.283469,0.005 -0.04529,0.500166 -0.227492,0.34262 -0.579369,0.678193 -0.78195,0.74572 -0.292762,0.09759 -0.283469,-0.005 0.04529,-0.500165 z M 136.78487,37.975227 c -0.94643,-0.901407 -1.43821,-1.543508 -1.23423,-1.611501 0.29432,-0.0981 3.20442,2.611083 3.20442,2.983185 0,0.368896 -0.53037,-2.64e-4 -1.97019,-1.371684 z m 10.23842,-0.256345 c -0.32742,-0.228399 -0.59531,-0.575937 -0.59531,-0.772308 0,-0.196371 -0.38677,-0.457261 -0.85949,-0.579755 -0.47441,-0.122931 -0.898,-0.42268 -0.94544,-0.669023 -0.14276,-0.741267 0.28631,-0.516421 1.92529,1.008902 1.499,1.395063 1.73022,1.887818 0.47495,1.012184 z M 17.440687,37.277444 c 0.237345,-0.362234 0.60574,-0.725453 0.818658,-0.807159 0.594932,-0.228296 -0.03327,0.814485 -0.708303,1.175755 -0.524975,0.280956 -0.52842,0.269452 -0.110355,-0.368596 z M 4.8758919,36.279208 c 0,-0.06757 0.47625,-0.649108 1.0583334,-1.292302 0.5820833,-0.643194 1.0545472,-1.055148 1.0499196,-0.915453 -0.013123,0.396483 -2.108253,2.59048 -2.108253,2.207755 z M 18.898809,36.10067 c 0,-0.349166 1.179314,-1.378347 1.579414,-1.378347 0.249889,0 0.206637,0.163589 -0.146383,0.553672 -0.60043,0.663467 -1.433031,1.142608 -1.433031,0.824675 z M 132.67657,34.442563 c -0.91701,-0.735952 -2.33551,-1.771634 -3.15221,-2.301521 -1.06872,-0.693391 -1.35403,-0.991425 -1.01792,-1.063323 0.25685,-0.05494 0.83153,0.206833 1.27707,0.581729 0.44554,0.374893 0.98349,0.681625 1.19546,0.681625 0.21197,0 0.78886,0.40346 1.28198,0.89658 0.49312,0.49312 1.11423,1.058667 1.38024,1.256771 0.67905,0.505703 1.25937,1.286232 0.9563,1.286232 -0.1395,0 -1.00391,-0.602141 -1.92092,-1.338093 z M 21.331203,33.973253 c 0.703908,-0.986409 2.286828,-2.160924 2.894203,-2.14747 l 0.626528,0.01386 -0.648118,0.449143 c -0.356465,0.247028 -1.111872,0.836097 -1.678681,1.309039 -1.131972,0.944513 -1.73546,1.134269 -1.193932,0.37541 z M 142.8561,33.928573 c -0.0899,-0.145521 -0.0374,-0.264584 0.11668,-0.264584 0.15411,0 0.2802,0.119063 0.2802,0.264584 0,0.145521 -0.0525,0.264583 -0.11668,0.264583 -0.0642,0 -0.19026,-0.119062 -0.2802,-0.264583 z M 7.6934478,32.995181 c 0.1682856,-0.438539 1.1565467,-1.069459 1.1427804,-0.729562 -0.014631,0.361225 -0.6991905,1.133787 -1.0046388,1.133787 -0.16129,0 -0.2234538,-0.181901 -0.1381416,-0.404225 z m 1.6803609,-1.547447 c 0,-0.415936 0.9981093,-1.371746 1.2105803,-1.159275 0.197585,0.197583 -0.447273,1.213932 -0.87416,1.377744 -0.185031,0.071 -0.3364203,-0.02731 -0.3364203,-0.218469 z M 26.571726,30.528179 c 0,-0.336108 0.549619,-0.753218 1.437124,-1.090646 0.680757,-0.258824 0.722437,-0.245073 0.407474,0.134432 -0.453469,0.546399 -1.844598,1.267542 -1.844598,0.956214 z m 99.498424,-0.587843 c -1.24747,-0.90366 -1.25638,-1.179187 -0.0294,-0.909701 0.53078,0.116578 0.95716,0.450025 1.21634,0.95122 0.50921,0.984707 0.21555,0.974436 -1.18693,-0.04152 z M 11.225892,29.683214 c 0,-0.462547 2.857407,-2.977303 4.85444,-4.272306 0.604277,-0.391854 1.448443,-0.987166 1.875925,-1.322917 1.087176,-0.853887 3.931256,-2.593525 4.249844,-2.599502 0.14552,-0.0027 0.788516,-0.359984 1.428877,-0.793898 1.453361,-0.984809 2.34933,-1.070139 1.270545,-0.121005 -0.407091,0.358164 -1.053114,0.729755 -1.435608,0.825754 -0.382498,0.096 -1.197785,0.51357 -1.811753,0.927931 -0.613966,0.414361 -1.22559,0.753385 -1.35916,0.753385 -0.133572,0 -0.585065,0.357187 -1.003318,0.79375 -0.418254,0.436563 -0.901425,0.79375 -1.073714,0.79375 -0.379627,0 -4.350245,3.134913 -4.350245,3.434638 0,0.116689 -0.283046,0.283202 -0.628991,0.370031 -0.345948,0.08683 -0.824942,0.456922 -1.064435,0.82243 -0.44464,0.678612 -0.952407,0.885444 -0.952407,0.387959 z m 19.182292,-1.575475 c 0.500909,-0.553497 1.190625,-0.71216 1.190625,-0.273891 0,0.289994 -0.860282,0.803058 -1.346531,0.803058 -0.202287,0 -0.144028,-0.197744 0.155906,-0.529167 z m 91.950176,-0.145267 c -0.58138,-0.410432 -0.75767,-0.648483 -0.48025,-0.648483 0.7433,0 1.7154,0.467458 1.8836,0.905775 0.23045,0.600541 -0.33511,0.49685 -1.40335,-0.257292 z M 33.8206,26.652592 c 0.276101,-0.208992 0.616233,-0.309385 0.755851,-0.223097 0.305927,0.189074 -0.295868,0.613656 -0.860975,0.607444 -0.305208,-0.0034 -0.280924,-0.09213 0.105124,-0.384347 z m 84.82613,-0.264644 -0.66146,-0.378124 0.69521,-0.0094 c 0.38236,-0.0052 0.84342,0.169217 1.02458,0.387499 0.43823,0.528031 -0.13464,0.528031 -1.05833,0 z M 18.105059,25.726489 c 0,-0.145521 0.119062,-0.264583 0.264583,-0.264583 0.145521,0 0.264583,0.119062 0.264583,0.264583 0,0.145521 -0.119062,0.264584 -0.264583,0.264584 -0.145521,0 -0.264583,-0.119063 -0.264583,-0.264584 z M 136.15462,24.757191 c -1.79164,-1.165058 -2.46034,-1.861553 -1.43446,-1.494068 0.91453,0.327597 3.9513,2.72795 3.45123,2.72795 -0.0656,0 -0.97316,-0.555247 -2.01677,-1.233882 z m -20.20334,0.523975 c 0.191,-0.07643 0.4192,-0.06703 0.50712,0.02088 0.0879,0.08792 -0.0683,0.150453 -0.34726,0.138965 -0.30823,-0.0127 -0.37092,-0.07539 -0.15986,-0.159851 z M 38.742559,24.932739 c 0.524738,-0.339111 1.66479,-0.339111 1.455208,0 -0.08994,0.145521 -0.543448,0.262761 -1.007803,0.260533 -0.642427,-0.0031 -0.749392,-0.06537 -0.447405,-0.260533 z m 74.215631,-0.264583 c -0.0899,-0.145521 0.0746,-0.264583 0.36564,-0.264583 0.29104,0 0.60275,0.119062 0.69269,0.264583 0.0899,0.145521 -0.0746,0.264583 -0.36565,0.264583 -0.29104,0 -0.60275,-0.119062 -0.69268,-0.264583 z m -65.219797,-1.02788 c 0,-0.277699 2.639906,-1.182907 2.846699,-0.976114 0.160124,0.160123 -2.002512,1.195411 -2.51597,1.204434 -0.181901,0.0032 -0.330729,-0.09955 -0.330729,-0.22832 z m 55.665027,-0.846497 c -1.88732,-1.497351 -1.93912,-2.417009 -0.0556,-0.987991 0.63647,0.482896 1.45184,1.080108 1.81194,1.327136 l 0.65473,0.449144 -0.69123,0.01386 c -0.38996,0.0078 -1.13951,-0.341786 -1.71979,-0.802166 z M 23.264434,22.286906 c 0.08994,-0.145521 0.282583,-0.264583 0.428104,-0.264583 0.14552,0 0.191,0.119062 0.101063,0.264583 -0.08994,0.145521 -0.282583,0.264583 -0.428104,0.264583 -0.145521,0 -0.191,-0.119062 -0.101063,-0.264583 z M 130.42654,21.135707 c -1.32552,-0.686224 -1.93561,-1.126506 -1.63989,-1.183458 0.40129,-0.07728 4.14758,1.939414 4.14758,2.232721 0,0.205293 -0.4399,0.02122 -2.50769,-1.049263 z M 51.177976,21.78705 c 0,-0.129397 0.234164,-0.51635 0.520364,-0.859896 0.555371,-0.666644 0.728445,-0.284287 0.264078,0.583396 -0.279805,0.522816 -0.784442,0.700693 -0.784442,0.2765 z M 26.704017,20.699406 c 0.08994,-0.145521 0.282583,-0.264583 0.428104,-0.264583 0.145521,0 0.191,0.119062 0.101063,0.264583 -0.08994,0.145521 -0.282583,0.264583 -0.428104,0.264583 -0.145521,0 -0.191,-0.119062 -0.101063,-0.264583 z m 77.777843,-0.903642 c -0.39558,-0.603745 -0.85677,-2.017511 -0.99657,-3.054972 -0.0287,-0.212704 0.15625,-0.429794 0.41092,-0.48242 0.32795,-0.06777 0.46302,0.07156 0.46302,0.477655 0,0.351859 0.20553,0.627084 0.53206,0.712473 0.59088,0.154519 0.87722,0.95128 0.74537,2.074053 -0.11545,0.983064 -0.61261,1.100687 -1.1548,0.273211 z m -56.47047,-0.08855 c 0.01175,-0.277103 0.675386,-1.124479 0.880649,-1.124479 0.0931,0 0.16927,0.297657 0.16927,0.661459 0,0.485068 -0.14111,0.661458 -0.529166,0.661458 -0.291042,0 -0.525381,-0.0893 -0.520753,-0.198438 z M 26.704017,19.157687 c 0.882547,-0.535265 2.546554,-1.159296 2.695131,-1.010719 0.166018,0.166018 -0.537716,0.600768 -1.708298,1.055349 -1.490327,0.578749 -1.978277,0.55668 -0.986833,-0.04463 z m 3.042709,0.218802 c 0,-0.145521 0.126089,-0.264583 0.280199,-0.264583 0.154109,0 0.206613,0.119062 0.116676,0.264583 -0.08994,0.145521 -0.216027,0.264584 -0.280199,0.264584 -0.06417,0 -0.116676,-0.119063 -0.116676,-0.264584 z m 96.837504,-0.268271 c -0.50933,-0.280871 -1.37253,-0.637657 -1.91823,-0.792859 -0.54571,-0.155199 -0.99219,-0.387643 -0.99219,-0.516543 0,-0.329949 2.87544,0.718 3.65703,1.332801 0.8248,0.648791 0.45108,0.637077 -0.74661,-0.02339 z M 52.236309,18.275704 c 0,-0.227079 -0.297656,-0.851493 -0.661458,-1.387584 -0.703644,-1.036878 -0.823878,-1.480381 -0.401333,-1.480381 0.463177,0 1.667549,2.676076 1.348129,2.995496 -0.20406,0.20406 -0.285338,0.167736 -0.285338,-0.127531 z M 31.863392,17.120983 c 0,-0.137473 0.635156,-0.411211 1.785938,-0.769702 0.427924,-0.133305 0.595312,-0.07814 0.595312,0.19618 0,0.215763 -0.359367,0.453507 -0.826823,0.546997 -1.00915,0.20183 -1.554427,0.211135 -1.554427,0.02652 z m 16.668751,-0.125744 c 0,-0.145521 0.231097,-0.264583 0.513551,-0.264583 0.282453,0 0.587136,0.119062 0.677074,0.264583 0.09274,0.150061 -0.129546,0.264584 -0.513551,0.264584 -0.372391,0 -0.677074,-0.119063 -0.677074,-0.264584 z M 119.96308,16.70909 c -0.50571,-0.268618 -1.26095,-0.558043 -1.6783,-0.643168 -0.41736,-0.08512 -0.68601,-0.227587 -0.59701,-0.316587 0.17076,-0.170757 3.31886,0.674931 3.68872,0.990915 0.51275,0.43806 -0.57518,0.414075 -1.41341,-0.03116 z M 102.24256,16.2083 c 0,-0.40141 1.89334,-2.120622 2.33715,-2.122213 0.56833,-0.0021 0.18946,0.652159 -0.43061,0.743559 -0.31106,0.04585 -0.86728,0.441939 -1.23605,0.880195 -0.36877,0.438258 -0.67049,0.662564 -0.67049,0.498459 z M 38.594691,14.997426 c 0.644867,-0.481446 3.058631,-0.523057 3.057465,-0.05271 -5.3e-4,0.226599 -0.562864,0.347323 -1.785938,0.383436 -1.612736,0.04762 -1.735521,0.01569 -1.271527,-0.330729 z m 76.215579,0.14573 c -0.44345,-0.190556 -0.38987,-0.230404 0.33073,-0.245986 0.47294,-0.01024 0.85989,0.100465 0.85989,0.245986 0,0.314105 -0.45966,0.314105 -1.19062,0 z"
         id="path828"
         inkscape:connector-curvature="0" />
      <path
         style="opacity:0.76399997;fill:#080500;fill-opacity:1;stroke:none;stroke-width:0;stroke-linecap:butt;stroke-linejoin:miter;stroke-miterlimit:4;stroke-dasharray:none;stroke-dashoffset:0;stroke-opacity:1;paint-order:stroke fill markers"
         d="m 478.99108,577.8054 c -13.91507,-8.79566 -14.82596,-10.12308 -17.25974,-25.1524 -1.41317,-8.72668 -1.56819,-17.08383 -0.34449,-18.57143 12.76484,-15.51782 19.5545,-21.60758 28.04172,-25.15107 9.23061,-3.85385 10.98726,-3.70053 22.83173,1.99277 33.00444,15.86429 34.11072,56.02618 1.94554,70.63022 -15.97498,7.25316 -18.18197,7.01826 -35.21476,-3.74809 z m 33.29463,-0.31808 c 0,-2.69277 -2.39293,-3.43207 -7.77727,-2.40279 -6.98224,1.33474 -7.2013,1.71182 -2.14286,3.6887 8.28832,3.23913 9.92013,3.02761 9.92013,-1.28591 z m 12.94371,-12.6906 c -1.91981,-1.91981 -10.08656,5.20635 -10.08656,8.80134 0,1.62257 2.57931,0.61588 5.7318,-2.23708 3.15249,-2.85297 5.11213,-5.80688 4.35476,-6.56426 z m -52.98746,-19.84846 c 0.0241,-6.67857 -1.27466,-12.14286 -2.88607,-12.14286 -1.71238,0 -2.71425,6.59676 -2.41105,15.8754 0.60112,18.39542 5.22915,15.13434 5.29712,-3.73254 z m 62.9009,-0.71429 c 0,-1.57143 -1.3616,-2.85714 -3.02577,-2.85714 -1.66416,0 -2.23114,1.28571 -1.25995,2.85714 0.9712,1.57143 2.33279,2.85714 3.02577,2.85714 0.69297,0 1.25995,-1.28571 1.25995,-2.85714 z m -23.63095,-30.29762 c -0.94941,-0.9494 -3.4137,-1.05091 -5.4762,-0.22556 -2.27923,0.91207 -1.60221,1.58909 1.7262,1.72619 3.0119,0.12406 4.6994,-0.55122 3.75,-1.50063 z"
         id="path844"
         inkscape:connector-curvature="0"
         transform="matrix(0.34297553,0,0,0.34297553,-56.123268,-106.84045)" />
      <path
         style="opacity:0.76399997;fill:#080500;fill-opacity:1;stroke:none;stroke-width:0;stroke-linecap:butt;stroke-linejoin:miter;stroke-miterlimit:4;stroke-dasharray:none;stroke-dashoffset:0;stroke-opacity:1;paint-order:stroke fill markers"
         d="m 259.42857,579.68974 c -6.28571,-3.85295 -13.03571,-7.75854 -15,-8.6791 -1.96428,-0.92056 -3.57143,-4.10762 -3.57143,-7.08235 0,-2.97473 -1.11019,-5.4086 -2.4671,-5.4086 -1.3569,0 -1.25749,-6.75 0.22092,-15 2.93237,-16.36357 11.7248,-28.02987 25.39137,-33.69074 9.59414,-3.97403 29.49652,-1.29792 26.49276,3.56226 -1.21197,1.96101 -0.63348,2.34094 1.52921,1.00432 1.97052,-1.21784 6.00475,0.13619 9.30539,3.12324 21.83658,19.76182 15.55929,53.96579 -11.92209,64.96166 -14.59003,5.83777 -16.1375,5.69372 -29.97903,-2.79069 z m 23.51191,-2.89625 c -0.94941,-0.9494 -3.41369,-1.0509 -5.47619,-0.22557 -2.27924,0.91208 -1.60222,1.5891 1.72619,1.72619 3.0119,0.12406 4.6994,-0.55122 3.75,-1.50062 z m 15.01683,-6.71336 c 3.9051,-3.00044 6.47652,-6.07089 5.71429,-6.82322 -0.76224,-0.75233 -5.24303,1.72478 -9.95731,5.50469 -10.08865,8.08906 -6.15843,9.31039 4.24302,1.31853 z m -45.6716,-10.30312 c 0,-0.54365 -1.49209,-4.26323 -3.31575,-8.26574 -3.30017,-7.24307 -8.11282,-9.86518 -8.11282,-4.42016 0,1.57143 1.4356,2.85715 3.19022,2.85715 1.83002,0 2.6293,2.93427 1.87464,6.88201 -0.94229,4.92928 -0.2261,6.46394 2.52407,5.4086 2.1118,-0.81037 3.83964,-1.91821 3.83964,-2.46186 z m -3.76253,-30.36447 c -0.91207,-2.27923 -1.58909,-1.60222 -1.72619,1.72619 -0.12406,3.01191 0.55122,4.69941 1.50063,3.75 0.9494,-0.9494 1.05091,-3.41369 0.22556,-5.47619 z m 52.27666,-6.67619 c -1.98777,-2.39511 -4.20252,-3.76637 -4.92166,-3.04723 -1.98142,1.98142 2.04441,7.40199 5.49743,7.40199 1.89455,0 1.6778,-1.63937 -0.57577,-4.35476 z"
         id="path846"
         inkscape:connector-curvature="0"
         transform="matrix(0.34297553,0,0,0.34297553,-56.123268,-106.84045)" />
      <text
         xml:space="preserve"
         style="font-style:normal;font-weight:normal;font-size:13.71902084px;line-height:1.25;font-family:sans-serif;letter-spacing:0px;word-spacing:0px;fill:#000000;fill-opacity:1;stroke:none;stroke-width:0.34297553"
         x="69.307785"
         y="43.953041"
         id="text869"><tspan
           sodipodi:role="line"
           id="tspan867"
           x="69.307785"
           y="56.09116"
           style="stroke-width:0.34297553" /></text>
      <text
         xml:space="preserve"
         style="font-style:normal;font-weight:normal;font-size:13.71902084px;line-height:1.25;font-family:sans-serif;letter-spacing:0px;word-spacing:0px;fill:#000000;fill-opacity:1;stroke:none;stroke-width:0.34297553"
         x="47.162552"
         y="172.14378"
         id="text873"><tspan
           sodipodi:role="line"
           id="tspan871"
           x="47.162552"
           y="172.14378"
           style="font-style:normal;font-variant:normal;font-weight:bold;font-stretch:normal;font-size:18.29202843px;font-family:sans-serif;-inkscape-font-specification:'sans-serif Bold';stroke-width:0.34297553">OHNO</tspan></text>
    </g>
  </g>
</svg>
